<svg width="493" height="290" viewBox="0 0 493 290" fill="none" xmlns="http://www.w3.org/2000/svg">
<g clip-path="url(#clip0)">
<path d="M484.136 226.988L264.988 7.844C259.924 2.78 253.172 0 245.816 0C238.608 0 231.852 2.78 226.796 7.844L7.852 226.78C2.788 231.848 0 238.604 0 245.812C0 253.02 2.784 259.78 7.852 264.844L23.976 280.968C29.04 286.032 35.8 288.828 43.008 288.828C50.216 288.828 56.972 286.032 62.04 280.968L245.892 97.116L429.948 281.18C435.012 286.24 441.768 289.032 448.98 289.032C456.188 289.032 462.94 286.24 468.008 281.18L484.136 265.048C494.624 254.556 494.624 237.48 484.136 226.988Z" fill="white"/>
</g>
<defs>
<clipPath id="clip0">
<rect width="492.002" height="289.032" fill="white"/>
</clipPath>
</defs>
</svg>
